<svg width="25" height="33" viewBox="0 0 25 33" fill="none" xmlns="http://www.w3.org/2000/svg">
<g clip-path="url(#clip0)">
<path d="M0 32.62V9.23002C0 4.13002 5.4 -0.039978 12 -0.039978H12.94C19.54 -0.039978 24.94 4.13002 24.94 9.23002V32.58L0 32.62Z" fill="#737144"/>
<path d="M12.37 10.7301C15.2419 10.7301 17.57 10.3271 17.57 9.83005C17.57 9.333 15.2419 8.93005 12.37 8.93005C9.4981 8.93005 7.16998 9.333 7.16998 9.83005C7.16998 10.3271 9.4981 10.7301 12.37 10.7301Z" fill="white"/>
<path d="M12.3 17.73C16.7459 17.73 20.35 17.1076 20.35 16.34C20.35 15.5723 16.7459 14.95 12.3 14.95C7.85411 14.95 4.25 15.5723 4.25 16.34C4.25 17.1076 7.85411 17.73 12.3 17.73Z" fill="white"/>
<path d="M12.48 26.21C17.8261 26.21 22.16 25.2295 22.16 24.02C22.16 22.8105 17.8261 21.83 12.48 21.83C7.13387 21.83 2.79999 22.8105 2.79999 24.02C2.79999 25.2295 7.13387 26.21 12.48 26.21Z" fill="white"/>
</g>
<defs>
<clipPath id="clip0">
<rect width="24.94" height="32.61" fill="white"/>
</clipPath>
</defs>
</svg>
